<mxfile host="app.diagrams.net" modified="2024-07-19T09:03:51.838Z" agent="Mozilla/5.0 (Windows NT 10.0; Win64; x64; rv:127.0) Gecko/20100101 Firefox/127.0" etag="tg9CtlX8g4OOdBaA5foV" version="24.7.1" type="device">
  <diagram name="Seite-1" id="YO00gdTqPcolKguNoB77">
    <mxGraphModel dx="393" dy="626" grid="1" gridSize="10" guides="1" tooltips="1" connect="1" arrows="1" fold="1" page="1" pageScale="1" pageWidth="827" pageHeight="1169" math="0" shadow="0">
      <root>
        <mxCell id="0" />
        <mxCell id="1" parent="0" />
        <mxCell id="wxSiTPEyvqV6hVWRVPNo-52" style="edgeStyle=orthogonalEdgeStyle;rounded=0;orthogonalLoop=1;jettySize=auto;html=1;entryX=0.583;entryY=-0.011;entryDx=0;entryDy=0;entryPerimeter=0;startArrow=none;startFill=0;endArrow=none;endFill=0;strokeColor=#808080;exitX=1;exitY=0.5;exitDx=0;exitDy=0;exitPerimeter=0;" edge="1" parent="1" source="wxSiTPEyvqV6hVWRVPNo-51">
          <mxGeometry relative="1" as="geometry">
            <mxPoint x="770" y="105" as="sourcePoint" />
            <mxPoint x="770" y="440" as="targetPoint" />
            <Array as="points">
              <mxPoint x="770" y="300" />
              <mxPoint x="771" y="300" />
              <mxPoint x="771" y="440" />
            </Array>
          </mxGeometry>
        </mxCell>
        <mxCell id="wxSiTPEyvqV6hVWRVPNo-1" style="edgeStyle=orthogonalEdgeStyle;rounded=0;orthogonalLoop=1;jettySize=auto;html=1;exitX=0;exitY=0.5;exitDx=0;exitDy=0;entryX=0.501;entryY=0.061;entryDx=0;entryDy=0;entryPerimeter=0;endArrow=none;endFill=0;fillColor=#e1d5e7;strokeColor=#9673a6;" edge="1" parent="1" source="wxSiTPEyvqV6hVWRVPNo-75" target="wxSiTPEyvqV6hVWRVPNo-76">
          <mxGeometry relative="1" as="geometry" />
        </mxCell>
        <mxCell id="wxSiTPEyvqV6hVWRVPNo-2" style="edgeStyle=orthogonalEdgeStyle;rounded=0;orthogonalLoop=1;jettySize=auto;html=1;exitX=0;exitY=0.5;exitDx=0;exitDy=0;entryX=0.501;entryY=0.061;entryDx=0;entryDy=0;entryPerimeter=0;endArrow=none;endFill=0;fillColor=#e1d5e7;strokeColor=#9673a6;" edge="1" parent="1" source="wxSiTPEyvqV6hVWRVPNo-68" target="wxSiTPEyvqV6hVWRVPNo-69">
          <mxGeometry relative="1" as="geometry" />
        </mxCell>
        <mxCell id="wxSiTPEyvqV6hVWRVPNo-3" style="edgeStyle=orthogonalEdgeStyle;rounded=0;orthogonalLoop=1;jettySize=auto;html=1;exitX=0;exitY=0.5;exitDx=0;exitDy=0;entryX=0.498;entryY=0.104;entryDx=0;entryDy=0;entryPerimeter=0;endArrow=none;endFill=0;fillColor=#e1d5e7;strokeColor=#9673a6;" edge="1" parent="1" source="wxSiTPEyvqV6hVWRVPNo-66" target="wxSiTPEyvqV6hVWRVPNo-70">
          <mxGeometry relative="1" as="geometry" />
        </mxCell>
        <mxCell id="wxSiTPEyvqV6hVWRVPNo-4" style="edgeStyle=orthogonalEdgeStyle;rounded=0;orthogonalLoop=1;jettySize=auto;html=1;exitX=0;exitY=0.5;exitDx=0;exitDy=0;entryX=0.501;entryY=0.167;entryDx=0;entryDy=0;entryPerimeter=0;endArrow=none;endFill=0;fillColor=#e1d5e7;strokeColor=#9673a6;" edge="1" parent="1" source="wxSiTPEyvqV6hVWRVPNo-65" target="wxSiTPEyvqV6hVWRVPNo-67">
          <mxGeometry relative="1" as="geometry" />
        </mxCell>
        <mxCell id="wxSiTPEyvqV6hVWRVPNo-5" style="edgeStyle=orthogonalEdgeStyle;rounded=0;orthogonalLoop=1;jettySize=auto;html=1;entryX=0.583;entryY=-0.011;entryDx=0;entryDy=0;entryPerimeter=0;startArrow=none;startFill=0;endArrow=none;endFill=0;strokeColor=#808080;exitX=0;exitY=0;exitDx=0;exitDy=30;exitPerimeter=0;" edge="1" parent="1" source="wxSiTPEyvqV6hVWRVPNo-41">
          <mxGeometry relative="1" as="geometry">
            <mxPoint x="310" y="310" as="sourcePoint" />
            <mxPoint x="309.71" y="440" as="targetPoint" />
            <Array as="points">
              <mxPoint x="370" y="440" />
            </Array>
          </mxGeometry>
        </mxCell>
        <mxCell id="wxSiTPEyvqV6hVWRVPNo-6" style="edgeStyle=orthogonalEdgeStyle;rounded=0;orthogonalLoop=1;jettySize=auto;html=1;entryX=0.583;entryY=-0.011;entryDx=0;entryDy=0;entryPerimeter=0;startArrow=none;startFill=0;endArrow=none;endFill=0;strokeColor=#808080;exitX=1;exitY=0.5;exitDx=0;exitDy=0;exitPerimeter=0;" edge="1" parent="1" source="wxSiTPEyvqV6hVWRVPNo-41">
          <mxGeometry relative="1" as="geometry">
            <mxPoint x="470" y="200" as="sourcePoint" />
            <mxPoint x="470" y="440" as="targetPoint" />
            <Array as="points">
              <mxPoint x="470" y="250" />
              <mxPoint x="470" y="250" />
            </Array>
          </mxGeometry>
        </mxCell>
        <mxCell id="wxSiTPEyvqV6hVWRVPNo-7" style="edgeStyle=orthogonalEdgeStyle;rounded=0;orthogonalLoop=1;jettySize=auto;html=1;entryX=0.583;entryY=-0.011;entryDx=0;entryDy=0;entryPerimeter=0;startArrow=none;startFill=0;endArrow=none;endFill=0;strokeColor=#808080;exitX=0;exitY=0;exitDx=0;exitDy=0;exitPerimeter=0;" edge="1" parent="1" source="wxSiTPEyvqV6hVWRVPNo-44">
          <mxGeometry relative="1" as="geometry">
            <mxPoint x="530" y="160" as="sourcePoint" />
            <mxPoint x="530" y="440" as="targetPoint" />
            <Array as="points">
              <mxPoint x="530" y="320" />
              <mxPoint x="531" y="320" />
              <mxPoint x="531" y="440" />
            </Array>
          </mxGeometry>
        </mxCell>
        <mxCell id="wxSiTPEyvqV6hVWRVPNo-8" style="edgeStyle=orthogonalEdgeStyle;rounded=0;orthogonalLoop=1;jettySize=auto;html=1;entryX=0.993;entryY=0.017;entryDx=0;entryDy=0;entryPerimeter=0;startArrow=none;startFill=0;endArrow=none;endFill=0;strokeColor=#808080;exitX=0;exitY=0;exitDx=0;exitDy=0;exitPerimeter=0;" edge="1" parent="1" source="wxSiTPEyvqV6hVWRVPNo-51">
          <mxGeometry relative="1" as="geometry">
            <mxPoint x="669.71" y="120" as="sourcePoint" />
            <mxPoint x="669.71" y="441" as="targetPoint" />
            <Array as="points">
              <mxPoint x="670" y="301" />
            </Array>
          </mxGeometry>
        </mxCell>
        <mxCell id="wxSiTPEyvqV6hVWRVPNo-10" style="edgeStyle=orthogonalEdgeStyle;rounded=0;orthogonalLoop=1;jettySize=auto;html=1;entryX=0.583;entryY=-0.011;entryDx=0;entryDy=0;entryPerimeter=0;startArrow=none;startFill=0;endArrow=none;endFill=0;strokeColor=#808080;exitX=1;exitY=0.5;exitDx=0;exitDy=0;exitPerimeter=0;" edge="1" parent="1" source="wxSiTPEyvqV6hVWRVPNo-40">
          <mxGeometry relative="1" as="geometry">
            <mxPoint x="499.43" y="105" as="sourcePoint" />
            <mxPoint x="499.43" y="440" as="targetPoint" />
            <Array as="points">
              <mxPoint x="500" y="220" />
            </Array>
          </mxGeometry>
        </mxCell>
        <mxCell id="wxSiTPEyvqV6hVWRVPNo-11" style="edgeStyle=orthogonalEdgeStyle;rounded=0;orthogonalLoop=1;jettySize=auto;html=1;entryX=0.993;entryY=0.017;entryDx=0;entryDy=0;entryPerimeter=0;startArrow=none;startFill=0;endArrow=none;endFill=0;strokeColor=#808080;exitX=0;exitY=0;exitDx=0;exitDy=0;exitPerimeter=0;" edge="1" parent="1" source="wxSiTPEyvqV6hVWRVPNo-40">
          <mxGeometry relative="1" as="geometry">
            <mxPoint x="400.13" y="120" as="sourcePoint" />
            <mxPoint x="399.7099999999999" y="441.0200000000001" as="targetPoint" />
            <Array as="points">
              <mxPoint x="400" y="200" />
              <mxPoint x="400" y="200" />
            </Array>
          </mxGeometry>
        </mxCell>
        <mxCell id="wxSiTPEyvqV6hVWRVPNo-12" style="edgeStyle=orthogonalEdgeStyle;rounded=0;orthogonalLoop=1;jettySize=auto;html=1;entryX=0.321;entryY=-0.002;entryDx=0;entryDy=0;entryPerimeter=0;startArrow=none;startFill=0;endArrow=none;endFill=0;strokeColor=#808080;exitX=1;exitY=0.5;exitDx=0;exitDy=0;exitPerimeter=0;" edge="1" parent="1" target="wxSiTPEyvqV6hVWRVPNo-22">
          <mxGeometry relative="1" as="geometry">
            <mxPoint x="199.72" y="280" as="sourcePoint" />
            <mxPoint x="199.42999999999998" y="415" as="targetPoint" />
            <Array as="points">
              <mxPoint x="200" y="306" />
            </Array>
          </mxGeometry>
        </mxCell>
        <mxCell id="wxSiTPEyvqV6hVWRVPNo-13" style="edgeStyle=orthogonalEdgeStyle;rounded=0;orthogonalLoop=1;jettySize=auto;html=1;entryX=0.583;entryY=-0.011;entryDx=0;entryDy=0;entryPerimeter=0;startArrow=none;startFill=0;endArrow=none;endFill=0;exitX=0;exitY=0;exitDx=0;exitDy=30;exitPerimeter=0;strokeColor=#808080;" edge="1" parent="1" source="wxSiTPEyvqV6hVWRVPNo-31">
          <mxGeometry relative="1" as="geometry">
            <mxPoint x="105" y="384.97" as="sourcePoint" />
            <mxPoint x="105" y="439.97" as="targetPoint" />
            <Array as="points" />
          </mxGeometry>
        </mxCell>
        <mxCell id="wxSiTPEyvqV6hVWRVPNo-14" style="edgeStyle=orthogonalEdgeStyle;rounded=0;orthogonalLoop=1;jettySize=auto;html=1;exitX=0;exitY=0;exitDx=0;exitDy=30;exitPerimeter=0;entryX=0.583;entryY=-0.011;entryDx=0;entryDy=0;entryPerimeter=0;startArrow=none;startFill=0;endArrow=none;endFill=0;strokeColor=#808080;" edge="1" parent="1" source="wxSiTPEyvqV6hVWRVPNo-33" target="wxSiTPEyvqV6hVWRVPNo-21">
          <mxGeometry relative="1" as="geometry" />
        </mxCell>
        <mxCell id="wxSiTPEyvqV6hVWRVPNo-15" value="&lt;div style=&quot;font-size: 13px;&quot; align=&quot;left&quot;&gt;&lt;font style=&quot;font-size: 14px;&quot;&gt;Woche&lt;/font&gt;&lt;/div&gt;" style="rounded=1;whiteSpace=wrap;html=1;align=left;strokeColor=#666666;fillColor=#f5f5f5;gradientColor=#b3b3b3;shadow=1;" vertex="1" parent="1">
          <mxGeometry x="29" y="440" width="871" height="30" as="geometry" />
        </mxCell>
        <mxCell id="wxSiTPEyvqV6hVWRVPNo-16" value="&lt;div style=&quot;font-size: 13px;&quot; align=&quot;left&quot;&gt;&lt;font style=&quot;font-size: 14px;&quot;&gt;Datum&lt;/font&gt;&lt;/div&gt;" style="rounded=1;whiteSpace=wrap;html=1;align=left;fillColor=#f5f5f5;strokeColor=#666666;gradientColor=#b3b3b3;shadow=1;" vertex="1" parent="1">
          <mxGeometry x="29" y="470" width="871" height="30" as="geometry" />
        </mxCell>
        <mxCell id="wxSiTPEyvqV6hVWRVPNo-17" value="" style="verticalLabelPosition=bottom;verticalAlign=top;html=1;shape=mxgraph.basic.8_point_star;fillColor=#f8cecc;gradientColor=#ea6b66;strokeColor=#b85450;shadow=1;" vertex="1" parent="1">
          <mxGeometry x="90" y="490" width="30" height="30" as="geometry" />
        </mxCell>
        <mxCell id="wxSiTPEyvqV6hVWRVPNo-18" value="" style="triangle;whiteSpace=wrap;html=1;rotation=-90;fillColor=#b1ddf0;strokeColor=#10739e;shadow=1;" vertex="1" parent="1">
          <mxGeometry x="610" y="490" width="20" height="30" as="geometry" />
        </mxCell>
        <mxCell id="wxSiTPEyvqV6hVWRVPNo-19" value="&lt;div style=&quot;font-size: 13px;&quot;&gt;&lt;font style=&quot;font-size: 13px;&quot;&gt;1&lt;/font&gt;&lt;/div&gt;&lt;div style=&quot;font-size: 13px;&quot;&gt;&lt;font style=&quot;font-size: 13px;&quot;&gt;&lt;br&gt;&lt;/font&gt;&lt;/div&gt;&lt;div style=&quot;font-size: 13px;&quot;&gt;&lt;font style=&quot;font-size: 13px;&quot;&gt;11.04&lt;/font&gt;&lt;br&gt;&lt;/div&gt;" style="text;html=1;align=center;verticalAlign=middle;resizable=0;points=[];autosize=1;strokeColor=none;fillColor=none;" vertex="1" parent="1">
          <mxGeometry x="80" y="440" width="50" height="60" as="geometry" />
        </mxCell>
        <mxCell id="wxSiTPEyvqV6hVWRVPNo-20" value="&lt;font color=&quot;#ff5353&quot;&gt;Projektbeginn&lt;/font&gt;" style="text;html=1;align=center;verticalAlign=middle;resizable=0;points=[];autosize=1;strokeColor=none;fillColor=none;shadow=1;" vertex="1" parent="1">
          <mxGeometry x="55" y="520" width="100" height="30" as="geometry" />
        </mxCell>
        <mxCell id="wxSiTPEyvqV6hVWRVPNo-21" value="&lt;div style=&quot;font-size: 13px;&quot;&gt;&lt;font style=&quot;font-size: 13px;&quot;&gt;2&lt;br&gt;&lt;/font&gt;&lt;/div&gt;&lt;div style=&quot;font-size: 13px;&quot;&gt;&lt;font style=&quot;font-size: 13px;&quot;&gt;&lt;br&gt;&lt;/font&gt;&lt;/div&gt;&lt;div style=&quot;font-size: 13px;&quot;&gt;&lt;font style=&quot;font-size: 13px;&quot;&gt;18.04&lt;/font&gt;&lt;br&gt;&lt;/div&gt;" style="text;html=1;align=center;verticalAlign=middle;resizable=0;points=[];autosize=1;strokeColor=none;fillColor=none;" vertex="1" parent="1">
          <mxGeometry x="125" y="440" width="60" height="60" as="geometry" />
        </mxCell>
        <mxCell id="wxSiTPEyvqV6hVWRVPNo-22" value="&lt;div style=&quot;font-size: 13px;&quot;&gt;&lt;font style=&quot;font-size: 13px;&quot;&gt;3&lt;/font&gt;&lt;/div&gt;&lt;div style=&quot;font-size: 13px;&quot;&gt;&lt;font style=&quot;font-size: 13px;&quot;&gt;&lt;br&gt;&lt;/font&gt;&lt;/div&gt;&lt;div style=&quot;font-size: 13px;&quot;&gt;&lt;font style=&quot;font-size: 13px;&quot;&gt;&lt;font style=&quot;font-size: 13px;&quot;&gt;25.04&lt;/font&gt;&lt;font style=&quot;font-size: 13px;&quot;&gt;&lt;br&gt;&lt;/font&gt;&lt;/font&gt;&lt;/div&gt;" style="text;html=1;align=center;verticalAlign=middle;resizable=0;points=[];autosize=1;strokeColor=none;fillColor=none;" vertex="1" parent="1">
          <mxGeometry x="180" y="440" width="60" height="60" as="geometry" />
        </mxCell>
        <mxCell id="wxSiTPEyvqV6hVWRVPNo-23" value="&lt;div style=&quot;font-size: 13px;&quot;&gt;&lt;font style=&quot;font-size: 13px;&quot;&gt;4&lt;/font&gt;&lt;/div&gt;&lt;div style=&quot;font-size: 13px;&quot;&gt;&lt;font style=&quot;font-size: 13px;&quot;&gt;&lt;br&gt;&lt;/font&gt;&lt;/div&gt;&lt;div style=&quot;font-size: 13px;&quot;&gt;&lt;font style=&quot;font-size: 13px;&quot;&gt;&lt;font style=&quot;font-size: 13px;&quot;&gt;02.05&lt;/font&gt;&lt;font style=&quot;font-size: 13px;&quot;&gt;&lt;br&gt;&lt;/font&gt;&lt;/font&gt;&lt;/div&gt;" style="text;html=1;align=center;verticalAlign=middle;resizable=0;points=[];autosize=1;strokeColor=none;fillColor=none;" vertex="1" parent="1">
          <mxGeometry x="230" y="440" width="60" height="60" as="geometry" />
        </mxCell>
        <mxCell id="wxSiTPEyvqV6hVWRVPNo-24" value="&lt;div style=&quot;font-size: 13px;&quot;&gt;&lt;font style=&quot;font-size: 13px;&quot;&gt;5&lt;/font&gt;&lt;/div&gt;&lt;div style=&quot;font-size: 13px;&quot;&gt;&lt;font style=&quot;font-size: 13px;&quot;&gt;&lt;br&gt;&lt;/font&gt;&lt;/div&gt;&lt;div style=&quot;font-size: 13px;&quot;&gt;&lt;font style=&quot;font-size: 13px;&quot;&gt;&lt;font style=&quot;font-size: 13px;&quot;&gt;09.05&lt;/font&gt;&lt;font style=&quot;font-size: 13px;&quot;&gt;&lt;br&gt;&lt;/font&gt;&lt;/font&gt;&lt;/div&gt;" style="text;html=1;align=center;verticalAlign=middle;resizable=0;points=[];autosize=1;strokeColor=none;fillColor=none;" vertex="1" parent="1">
          <mxGeometry x="280" y="440" width="60" height="60" as="geometry" />
        </mxCell>
        <mxCell id="wxSiTPEyvqV6hVWRVPNo-25" value="&lt;font style=&quot;font-size: 13px;&quot;&gt;6&lt;/font&gt;&lt;br&gt;&lt;div style=&quot;font-size: 13px;&quot;&gt;&lt;font style=&quot;font-size: 13px;&quot;&gt;&lt;br&gt;&lt;/font&gt;&lt;/div&gt;&lt;div style=&quot;font-size: 13px;&quot;&gt;&lt;font style=&quot;font-size: 13px;&quot;&gt;&lt;font style=&quot;font-size: 13px;&quot;&gt;16.05&lt;/font&gt;&lt;font style=&quot;font-size: 13px;&quot;&gt;&lt;br&gt;&lt;/font&gt;&lt;/font&gt;&lt;/div&gt;" style="text;html=1;align=center;verticalAlign=middle;resizable=0;points=[];autosize=1;strokeColor=none;fillColor=none;" vertex="1" parent="1">
          <mxGeometry x="330" y="440" width="60" height="60" as="geometry" />
        </mxCell>
        <mxCell id="wxSiTPEyvqV6hVWRVPNo-26" value="&lt;div style=&quot;font-size: 13px;&quot;&gt;7&lt;br&gt;&lt;/div&gt;&lt;div style=&quot;font-size: 13px;&quot;&gt;&lt;font style=&quot;font-size: 13px;&quot;&gt;&lt;br&gt;&lt;/font&gt;&lt;/div&gt;&lt;div style=&quot;font-size: 13px;&quot;&gt;&lt;font style=&quot;font-size: 13px;&quot;&gt;&lt;font style=&quot;font-size: 13px;&quot;&gt;23.05&lt;/font&gt;&lt;font style=&quot;font-size: 13px;&quot;&gt;&lt;br&gt;&lt;/font&gt;&lt;/font&gt;&lt;/div&gt;" style="text;html=1;align=center;verticalAlign=middle;resizable=0;points=[];autosize=1;strokeColor=none;fillColor=none;" vertex="1" parent="1">
          <mxGeometry x="384" y="440" width="60" height="60" as="geometry" />
        </mxCell>
        <mxCell id="wxSiTPEyvqV6hVWRVPNo-27" value="&lt;div style=&quot;font-size: 13px;&quot;&gt;&lt;font style=&quot;font-size: 13px;&quot;&gt;8&lt;/font&gt;&lt;/div&gt;&lt;div style=&quot;font-size: 13px;&quot;&gt;&lt;font style=&quot;font-size: 13px;&quot;&gt;&lt;br&gt;&lt;/font&gt;&lt;/div&gt;&lt;div style=&quot;font-size: 13px;&quot;&gt;&lt;font style=&quot;font-size: 13px;&quot;&gt;&lt;font style=&quot;font-size: 13px;&quot;&gt;30.05&lt;/font&gt;&lt;font style=&quot;font-size: 13px;&quot;&gt;&lt;br&gt;&lt;/font&gt;&lt;/font&gt;&lt;/div&gt;" style="text;html=1;align=center;verticalAlign=middle;resizable=0;points=[];autosize=1;strokeColor=none;fillColor=none;" vertex="1" parent="1">
          <mxGeometry x="440" y="440" width="60" height="60" as="geometry" />
        </mxCell>
        <mxCell id="wxSiTPEyvqV6hVWRVPNo-28" value="&lt;div style=&quot;font-size: 13px;&quot;&gt;&lt;font style=&quot;font-size: 13px;&quot;&gt;9&lt;/font&gt;&lt;/div&gt;&lt;div style=&quot;font-size: 13px;&quot;&gt;&lt;font style=&quot;font-size: 13px;&quot;&gt;&lt;br&gt;&lt;/font&gt;&lt;/div&gt;&lt;div style=&quot;font-size: 13px;&quot;&gt;&lt;font style=&quot;font-size: 13px;&quot;&gt;&lt;font style=&quot;font-size: 13px;&quot;&gt;06.06&lt;/font&gt;&lt;font style=&quot;font-size: 13px;&quot;&gt;&lt;br&gt;&lt;/font&gt;&lt;/font&gt;&lt;/div&gt;" style="text;html=1;align=center;verticalAlign=middle;resizable=0;points=[];autosize=1;strokeColor=none;fillColor=none;" vertex="1" parent="1">
          <mxGeometry x="490" y="440" width="60" height="60" as="geometry" />
        </mxCell>
        <mxCell id="wxSiTPEyvqV6hVWRVPNo-29" value="&lt;div style=&quot;font-size: 13px;&quot;&gt;&lt;font style=&quot;font-size: 13px;&quot;&gt;10&lt;/font&gt;&lt;/div&gt;&lt;div style=&quot;font-size: 13px;&quot;&gt;&lt;font style=&quot;font-size: 13px;&quot;&gt;&lt;br&gt;&lt;/font&gt;&lt;/div&gt;&lt;div style=&quot;font-size: 13px;&quot;&gt;&lt;font style=&quot;font-size: 13px;&quot;&gt;&lt;font style=&quot;font-size: 13px;&quot;&gt;13.06&lt;/font&gt;&lt;font style=&quot;font-size: 13px;&quot;&gt;&lt;br&gt;&lt;/font&gt;&lt;/font&gt;&lt;/div&gt;" style="text;html=1;align=center;verticalAlign=middle;resizable=0;points=[];autosize=1;strokeColor=none;fillColor=none;" vertex="1" parent="1">
          <mxGeometry x="540" y="440" width="60" height="60" as="geometry" />
        </mxCell>
        <mxCell id="wxSiTPEyvqV6hVWRVPNo-30" value="" style="verticalLabelPosition=bottom;verticalAlign=top;html=1;shape=mxgraph.basic.8_point_star;fillColor=#f8cecc;gradientColor=#ea6b66;strokeColor=#b85450;shadow=1;" vertex="1" parent="1">
          <mxGeometry x="505" y="490" width="30" height="30" as="geometry" />
        </mxCell>
        <mxCell id="wxSiTPEyvqV6hVWRVPNo-31" value="Recherche" style="html=1;shadow=1;dashed=0;align=center;verticalAlign=middle;shape=mxgraph.arrows2.arrow;dy=0;dx=10;notch=0;fillColor=#6d8764;fontColor=#ffffff;strokeColor=#3A5431;" vertex="1" parent="1">
          <mxGeometry x="105" y="330" width="155" height="30" as="geometry" />
        </mxCell>
        <mxCell id="wxSiTPEyvqV6hVWRVPNo-32" value="Organisation" style="html=1;shadow=1;dashed=0;align=center;verticalAlign=middle;shape=mxgraph.arrows2.arrow;dy=0;dx=10;notch=0;fillColor=#6d8764;fontColor=#ffffff;strokeColor=#3A5431;" vertex="1" parent="1">
          <mxGeometry x="105" y="370" width="105" height="30" as="geometry" />
        </mxCell>
        <mxCell id="wxSiTPEyvqV6hVWRVPNo-33" value="Entwurf" style="html=1;shadow=1;dashed=0;align=center;verticalAlign=middle;shape=mxgraph.arrows2.arrow;dy=0;dx=10;notch=0;fillColor=#6d8764;fontColor=#ffffff;strokeColor=#3A5431;" vertex="1" parent="1">
          <mxGeometry x="160" y="290" width="150" height="30" as="geometry" />
        </mxCell>
        <mxCell id="wxSiTPEyvqV6hVWRVPNo-34" style="edgeStyle=orthogonalEdgeStyle;rounded=0;orthogonalLoop=1;jettySize=auto;html=1;entryX=0.583;entryY=-0.011;entryDx=0;entryDy=0;entryPerimeter=0;startArrow=none;startFill=0;endArrow=none;endFill=0;strokeColor=#808080;exitX=1;exitY=0.5;exitDx=0;exitDy=0;exitPerimeter=0;" edge="1" parent="1" source="wxSiTPEyvqV6hVWRVPNo-31">
          <mxGeometry relative="1" as="geometry">
            <mxPoint x="259" y="390" as="sourcePoint" />
            <mxPoint x="259.43" y="439" as="targetPoint" />
            <Array as="points">
              <mxPoint x="259" y="385" />
              <mxPoint x="259" y="420" />
            </Array>
          </mxGeometry>
        </mxCell>
        <mxCell id="wxSiTPEyvqV6hVWRVPNo-35" style="edgeStyle=orthogonalEdgeStyle;rounded=0;orthogonalLoop=1;jettySize=auto;html=1;startArrow=none;startFill=0;endArrow=none;endFill=0;exitX=1;exitY=0.5;exitDx=0;exitDy=0;exitPerimeter=0;strokeColor=#808080;" edge="1" parent="1" source="wxSiTPEyvqV6hVWRVPNo-32">
          <mxGeometry relative="1" as="geometry">
            <mxPoint x="210" y="380" as="sourcePoint" />
            <mxPoint x="210" y="440" as="targetPoint" />
            <Array as="points">
              <mxPoint x="210" y="400" />
              <mxPoint x="210" y="400" />
            </Array>
          </mxGeometry>
        </mxCell>
        <mxCell id="wxSiTPEyvqV6hVWRVPNo-36" value="" style="triangle;whiteSpace=wrap;html=1;rotation=-90;fillColor=#b1ddf0;strokeColor=#10739e;shadow=1;" vertex="1" parent="1">
          <mxGeometry x="200" y="490" width="20" height="30" as="geometry" />
        </mxCell>
        <mxCell id="wxSiTPEyvqV6hVWRVPNo-37" value="Implementierung Kommunikation" style="html=1;shadow=1;dashed=0;align=center;verticalAlign=middle;shape=mxgraph.arrows2.arrow;dy=0;dx=10;notch=0;fillColor=#6d8764;fontColor=#ffffff;strokeColor=#3A5431;" vertex="1" parent="1">
          <mxGeometry x="200" y="210" width="200" height="30" as="geometry" />
        </mxCell>
        <mxCell id="wxSiTPEyvqV6hVWRVPNo-38" value="Implementierung Spiele" style="html=1;shadow=1;dashed=0;align=center;verticalAlign=middle;shape=mxgraph.arrows2.arrow;dy=0;dx=10;notch=0;fillColor=#6d8764;fontColor=#ffffff;strokeColor=#3A5431;" vertex="1" parent="1">
          <mxGeometry x="470" y="210" width="200" height="30" as="geometry" />
        </mxCell>
        <mxCell id="wxSiTPEyvqV6hVWRVPNo-39" value="Webseitendesign" style="html=1;shadow=1;dashed=0;align=center;verticalAlign=middle;shape=mxgraph.arrows2.arrow;dy=0;dx=10;notch=0;fillColor=#6d8764;fontColor=#ffffff;strokeColor=#3A5431;" vertex="1" parent="1">
          <mxGeometry x="200" y="250" width="110" height="30" as="geometry" />
        </mxCell>
        <mxCell id="wxSiTPEyvqV6hVWRVPNo-40" value="Präsentation" style="html=1;shadow=1;dashed=0;align=center;verticalAlign=middle;shape=mxgraph.arrows2.arrow;dy=0;dx=10;notch=0;fillColor=#6d8764;fontColor=#ffffff;strokeColor=#3A5431;" vertex="1" parent="1">
          <mxGeometry x="400" y="130" width="100" height="30" as="geometry" />
        </mxCell>
        <mxCell id="wxSiTPEyvqV6hVWRVPNo-41" value="Testen" style="html=1;shadow=1;dashed=0;align=center;verticalAlign=middle;shape=mxgraph.arrows2.arrow;dy=0;dx=10;notch=0;fillColor=#6d8764;fontColor=#ffffff;strokeColor=#3A5431;" vertex="1" parent="1">
          <mxGeometry x="370" y="170" width="100" height="30" as="geometry" />
        </mxCell>
        <mxCell id="wxSiTPEyvqV6hVWRVPNo-42" value="Implementierung Webseite" style="html=1;shadow=1;dashed=0;align=center;verticalAlign=middle;shape=mxgraph.arrows2.arrow;dy=0;dx=10;notch=0;fillColor=#6d8764;fontColor=#ffffff;strokeColor=#3A5431;" vertex="1" parent="1">
          <mxGeometry x="320" y="250" width="350" height="30" as="geometry" />
        </mxCell>
        <mxCell id="wxSiTPEyvqV6hVWRVPNo-43" style="edgeStyle=orthogonalEdgeStyle;rounded=0;orthogonalLoop=1;jettySize=auto;html=1;entryX=0.583;entryY=-0.011;entryDx=0;entryDy=0;entryPerimeter=0;startArrow=none;startFill=0;endArrow=none;endFill=0;strokeColor=#808080;" edge="1" parent="1">
          <mxGeometry relative="1" as="geometry">
            <mxPoint x="320" y="280" as="sourcePoint" />
            <mxPoint x="320" y="440" as="targetPoint" />
            <Array as="points">
              <mxPoint x="320.29" y="331" />
            </Array>
          </mxGeometry>
        </mxCell>
        <mxCell id="wxSiTPEyvqV6hVWRVPNo-44" value="Testen" style="html=1;shadow=1;dashed=0;align=center;verticalAlign=middle;shape=mxgraph.arrows2.arrow;dy=0;dx=10;notch=0;fillColor=#6d8764;fontColor=#ffffff;strokeColor=#3A5431;" vertex="1" parent="1">
          <mxGeometry x="530" y="170" width="240" height="30" as="geometry" />
        </mxCell>
        <mxCell id="wxSiTPEyvqV6hVWRVPNo-45" value="Dokumentation" style="html=1;shadow=1;dashed=0;align=center;verticalAlign=middle;shape=mxgraph.arrows2.arrow;dy=0;dx=10;notch=0;fillColor=#6d8764;fontColor=#ffffff;strokeColor=#3A5431;" vertex="1" parent="1">
          <mxGeometry x="530" y="290" width="340" height="30" as="geometry" />
        </mxCell>
        <mxCell id="wxSiTPEyvqV6hVWRVPNo-46" value="&lt;div style=&quot;font-size: 13px;&quot;&gt;&lt;font style=&quot;font-size: 13px;&quot;&gt;11&lt;/font&gt;&lt;/div&gt;&lt;div style=&quot;font-size: 13px;&quot;&gt;&lt;font style=&quot;font-size: 13px;&quot;&gt;&lt;br&gt;&lt;/font&gt;&lt;/div&gt;&lt;div style=&quot;font-size: 13px;&quot;&gt;&lt;font style=&quot;font-size: 13px;&quot;&gt;&lt;font style=&quot;font-size: 13px;&quot;&gt;20.06&lt;/font&gt;&lt;font style=&quot;font-size: 13px;&quot;&gt;&lt;br&gt;&lt;/font&gt;&lt;/font&gt;&lt;/div&gt;" style="text;html=1;align=center;verticalAlign=middle;resizable=0;points=[];autosize=1;strokeColor=none;fillColor=none;" vertex="1" parent="1">
          <mxGeometry x="590" y="440" width="60" height="60" as="geometry" />
        </mxCell>
        <mxCell id="wxSiTPEyvqV6hVWRVPNo-47" value="&lt;div style=&quot;font-size: 13px;&quot;&gt;&lt;font style=&quot;font-size: 13px;&quot;&gt;12&lt;/font&gt;&lt;/div&gt;&lt;div style=&quot;font-size: 13px;&quot;&gt;&lt;font style=&quot;font-size: 13px;&quot;&gt;&lt;br&gt;&lt;/font&gt;&lt;/div&gt;&lt;div style=&quot;font-size: 13px;&quot;&gt;&lt;font style=&quot;font-size: 13px;&quot;&gt;&lt;font style=&quot;font-size: 13px;&quot;&gt;27.06&lt;/font&gt;&lt;font style=&quot;font-size: 13px;&quot;&gt;&lt;br&gt;&lt;/font&gt;&lt;/font&gt;&lt;/div&gt;" style="text;html=1;align=center;verticalAlign=middle;resizable=0;points=[];autosize=1;strokeColor=none;fillColor=none;" vertex="1" parent="1">
          <mxGeometry x="640" y="440" width="60" height="60" as="geometry" />
        </mxCell>
        <mxCell id="wxSiTPEyvqV6hVWRVPNo-48" value="&lt;div style=&quot;font-size: 13px;&quot;&gt;&lt;font style=&quot;font-size: 13px;&quot;&gt;13&lt;/font&gt;&lt;/div&gt;&lt;div style=&quot;font-size: 13px;&quot;&gt;&lt;font style=&quot;font-size: 13px;&quot;&gt;&lt;br&gt;&lt;/font&gt;&lt;/div&gt;&lt;div style=&quot;font-size: 13px;&quot;&gt;&lt;font style=&quot;font-size: 13px;&quot;&gt;&lt;font style=&quot;font-size: 13px;&quot;&gt;04.07&lt;/font&gt;&lt;font style=&quot;font-size: 13px;&quot;&gt;&lt;br&gt;&lt;/font&gt;&lt;/font&gt;&lt;/div&gt;" style="text;html=1;align=center;verticalAlign=middle;resizable=0;points=[];autosize=1;strokeColor=none;fillColor=none;" vertex="1" parent="1">
          <mxGeometry x="690" y="440" width="60" height="60" as="geometry" />
        </mxCell>
        <mxCell id="wxSiTPEyvqV6hVWRVPNo-49" value="&lt;div style=&quot;font-size: 13px;&quot;&gt;&lt;font style=&quot;font-size: 13px;&quot;&gt;14&lt;/font&gt;&lt;/div&gt;&lt;div style=&quot;font-size: 13px;&quot;&gt;&lt;font style=&quot;font-size: 13px;&quot;&gt;&lt;br&gt;&lt;/font&gt;&lt;/div&gt;&lt;div style=&quot;font-size: 13px;&quot;&gt;&lt;font style=&quot;font-size: 13px;&quot;&gt;&lt;font style=&quot;font-size: 13px;&quot;&gt;11.07&lt;/font&gt;&lt;font style=&quot;font-size: 13px;&quot;&gt;&lt;br&gt;&lt;/font&gt;&lt;/font&gt;&lt;/div&gt;" style="text;html=1;align=center;verticalAlign=middle;resizable=0;points=[];autosize=1;strokeColor=none;fillColor=none;" vertex="1" parent="1">
          <mxGeometry x="744" y="440" width="50" height="60" as="geometry" />
        </mxCell>
        <mxCell id="wxSiTPEyvqV6hVWRVPNo-50" value="" style="verticalLabelPosition=bottom;verticalAlign=top;html=1;shape=mxgraph.basic.8_point_star;fillColor=#f8cecc;gradientColor=#ea6b66;strokeColor=#b85450;shadow=1;" vertex="1" parent="1">
          <mxGeometry x="754" y="490" width="30" height="30" as="geometry" />
        </mxCell>
        <mxCell id="wxSiTPEyvqV6hVWRVPNo-51" value="Präsentation" style="html=1;shadow=1;dashed=0;align=center;verticalAlign=middle;shape=mxgraph.arrows2.arrow;dy=0;dx=10;notch=0;fillColor=#6d8764;fontColor=#ffffff;strokeColor=#3A5431;" vertex="1" parent="1">
          <mxGeometry x="670" y="130" width="100" height="30" as="geometry" />
        </mxCell>
        <mxCell id="wxSiTPEyvqV6hVWRVPNo-53" value="" style="triangle;whiteSpace=wrap;html=1;rotation=-90;fillColor=#b1ddf0;strokeColor=#10739e;shadow=1;" vertex="1" parent="1">
          <mxGeometry x="390" y="490" width="20" height="30" as="geometry" />
        </mxCell>
        <mxCell id="wxSiTPEyvqV6hVWRVPNo-55" value="&lt;div&gt;&lt;font color=&quot;#3399ff&quot;&gt;Fertigstellung&lt;/font&gt;&lt;/div&gt;&lt;div&gt;&lt;font color=&quot;#3399ff&quot;&gt;Lastenheft&lt;br&gt;&lt;/font&gt;&lt;/div&gt;" style="text;html=1;align=center;verticalAlign=middle;resizable=0;points=[];autosize=1;strokeColor=none;fillColor=none;" vertex="1" parent="1">
          <mxGeometry x="160" y="580" width="100" height="40" as="geometry" />
        </mxCell>
        <mxCell id="wxSiTPEyvqV6hVWRVPNo-56" value="&lt;div&gt;&lt;font color=&quot;#3399ff&quot;&gt;Fertigstellung&lt;/font&gt;&lt;/div&gt;&lt;div&gt;&lt;font color=&quot;#3399ff&quot;&gt;Pflichtenheft &amp;amp;&lt;/font&gt;&lt;/div&gt;&lt;div&gt;&lt;font color=&quot;#3399ff&quot;&gt;Architekturentwurf&lt;br&gt;&lt;/font&gt;&lt;/div&gt;" style="text;html=1;align=center;verticalAlign=middle;resizable=0;points=[];autosize=1;strokeColor=none;fillColor=none;" vertex="1" parent="1">
          <mxGeometry x="250" y="570" width="120" height="60" as="geometry" />
        </mxCell>
        <mxCell id="wxSiTPEyvqV6hVWRVPNo-57" value="&lt;div&gt;&lt;font color=&quot;#3399ff&quot;&gt;Funktionsfähige&lt;/font&gt;&lt;/div&gt;&lt;div&gt;&lt;font color=&quot;#3399ff&quot;&gt;Kommunikation&lt;/font&gt;&lt;/div&gt;&lt;div&gt;&lt;font color=&quot;#3399ff&quot;&gt;(mit Docker)&lt;br&gt;&lt;/font&gt;&lt;/div&gt;" style="text;html=1;align=center;verticalAlign=middle;resizable=0;points=[];autosize=1;strokeColor=none;fillColor=none;" vertex="1" parent="1">
          <mxGeometry x="350" y="570" width="110" height="60" as="geometry" />
        </mxCell>
        <mxCell id="wxSiTPEyvqV6hVWRVPNo-58" value="&lt;div&gt;&lt;font color=&quot;#ff5353&quot;&gt;Zwischen-&lt;/font&gt;&lt;/div&gt;&lt;div&gt;&lt;font color=&quot;#ff5353&quot;&gt;präsentation&lt;br&gt;&lt;/font&gt;&lt;/div&gt;" style="text;html=1;align=center;verticalAlign=middle;resizable=0;points=[];autosize=1;strokeColor=none;fillColor=none;shadow=1;" vertex="1" parent="1">
          <mxGeometry x="475" y="520" width="90" height="40" as="geometry" />
        </mxCell>
        <mxCell id="wxSiTPEyvqV6hVWRVPNo-59" value="&lt;div&gt;&lt;font color=&quot;#3399ff&quot;&gt;Vollständige&lt;/font&gt;&lt;/div&gt;&lt;div&gt;&lt;font color=&quot;#3399ff&quot;&gt;Spieleumsetzung&lt;/font&gt;&lt;/div&gt;" style="text;html=1;align=center;verticalAlign=middle;resizable=0;points=[];autosize=1;strokeColor=none;fillColor=none;" vertex="1" parent="1">
          <mxGeometry x="560" y="580" width="120" height="40" as="geometry" />
        </mxCell>
        <mxCell id="wxSiTPEyvqV6hVWRVPNo-60" value="&lt;div&gt;&lt;font color=&quot;#ff5353&quot;&gt;Abschluss-&lt;/font&gt;&lt;/div&gt;&lt;div&gt;&lt;font color=&quot;#ff5353&quot;&gt;präsentation&lt;br&gt;&lt;/font&gt;&lt;/div&gt;" style="text;html=1;align=center;verticalAlign=middle;resizable=0;points=[];autosize=1;strokeColor=none;fillColor=none;shadow=1;" vertex="1" parent="1">
          <mxGeometry x="724" y="520" width="90" height="40" as="geometry" />
        </mxCell>
        <mxCell id="wxSiTPEyvqV6hVWRVPNo-61" value="" style="endArrow=none;html=1;rounded=0;entryX=0;entryY=0.5;entryDx=0;entryDy=0;exitX=0.5;exitY=0.125;exitDx=0;exitDy=0;exitPerimeter=0;fillColor=#dae8fc;gradientColor=#7ea6e0;strokeColor=#6c8ebf;" edge="1" parent="1" source="wxSiTPEyvqV6hVWRVPNo-55" target="wxSiTPEyvqV6hVWRVPNo-36">
          <mxGeometry width="50" height="50" relative="1" as="geometry">
            <mxPoint x="410" y="460" as="sourcePoint" />
            <mxPoint x="460" y="410" as="targetPoint" />
          </mxGeometry>
        </mxCell>
        <mxCell id="wxSiTPEyvqV6hVWRVPNo-62" value="" style="endArrow=none;html=1;rounded=0;fillColor=#dae8fc;gradientColor=#7ea6e0;strokeColor=#6c8ebf;entryX=0;entryY=0.5;entryDx=0;entryDy=0;exitX=0.455;exitY=0.167;exitDx=0;exitDy=0;exitPerimeter=0;" edge="1" parent="1" source="wxSiTPEyvqV6hVWRVPNo-57" target="wxSiTPEyvqV6hVWRVPNo-53">
          <mxGeometry width="50" height="50" relative="1" as="geometry">
            <mxPoint x="394" y="530" as="sourcePoint" />
            <mxPoint x="360" y="510" as="targetPoint" />
          </mxGeometry>
        </mxCell>
        <mxCell id="wxSiTPEyvqV6hVWRVPNo-63" value="" style="endArrow=none;html=1;rounded=0;entryX=0;entryY=0.5;entryDx=0;entryDy=0;fillColor=#dae8fc;gradientColor=#7ea6e0;strokeColor=#6c8ebf;exitX=0.5;exitY=0.07;exitDx=0;exitDy=0;exitPerimeter=0;" edge="1" parent="1" source="wxSiTPEyvqV6hVWRVPNo-59" target="wxSiTPEyvqV6hVWRVPNo-18">
          <mxGeometry width="50" height="50" relative="1" as="geometry">
            <mxPoint x="620" y="540" as="sourcePoint" />
            <mxPoint x="620" y="520" as="targetPoint" />
          </mxGeometry>
        </mxCell>
        <mxCell id="wxSiTPEyvqV6hVWRVPNo-64" value="" style="endArrow=none;html=1;rounded=0;exitX=0.5;exitY=0.125;exitDx=0;exitDy=0;exitPerimeter=0;fillColor=#dae8fc;gradientColor=#7ea6e0;strokeColor=#6c8ebf;entryX=0;entryY=0.5;entryDx=0;entryDy=0;" edge="1" parent="1">
          <mxGeometry width="50" height="50" relative="1" as="geometry">
            <mxPoint x="309.72" y="535" as="sourcePoint" />
            <mxPoint x="309.72" y="515" as="targetPoint" />
            <Array as="points">
              <mxPoint x="310" y="580" />
            </Array>
          </mxGeometry>
        </mxCell>
        <mxCell id="wxSiTPEyvqV6hVWRVPNo-65" value="" style="triangle;whiteSpace=wrap;html=1;rotation=-90;fillColor=#e1d5e7;strokeColor=#9673a6;shadow=1;" vertex="1" parent="1">
          <mxGeometry x="424" y="490" width="20" height="30" as="geometry" />
        </mxCell>
        <mxCell id="wxSiTPEyvqV6hVWRVPNo-66" value="" style="triangle;whiteSpace=wrap;html=1;rotation=-90;fillColor=#e1d5e7;strokeColor=#9673a6;shadow=1;" vertex="1" parent="1">
          <mxGeometry x="290" y="490" width="20" height="30" as="geometry" />
        </mxCell>
        <mxCell id="wxSiTPEyvqV6hVWRVPNo-67" value="&lt;div&gt;&lt;font color=&quot;#9933ff&quot;&gt;Test-Webseite +&lt;br&gt;&lt;/font&gt;&lt;/div&gt;&lt;div&gt;&lt;font color=&quot;#9933ff&quot;&gt;Standard-&lt;/font&gt;&lt;/div&gt;&lt;div&gt;&lt;font color=&quot;#9933ff&quot;&gt;funktionalität&lt;br&gt;&lt;/font&gt;&lt;/div&gt;" style="text;html=1;align=center;verticalAlign=middle;resizable=0;points=[];autosize=1;strokeColor=none;fillColor=none;" vertex="1" parent="1">
          <mxGeometry x="379" y="640" width="110" height="60" as="geometry" />
        </mxCell>
        <mxCell id="wxSiTPEyvqV6hVWRVPNo-68" value="" style="triangle;whiteSpace=wrap;html=1;rotation=-90;fillColor=#e1d5e7;strokeColor=#9673a6;shadow=1;" vertex="1" parent="1">
          <mxGeometry x="620" y="490" width="20" height="30" as="geometry" />
        </mxCell>
        <mxCell id="wxSiTPEyvqV6hVWRVPNo-69" value="&lt;div&gt;&lt;font color=&quot;#9933ff&quot;&gt;Fertige externe &amp;amp;&lt;/font&gt;&lt;/div&gt;&lt;div&gt;&lt;font color=&quot;#9933ff&quot;&gt;Webseiten-&lt;/font&gt;&lt;/div&gt;&lt;div&gt;&lt;font color=&quot;#9933ff&quot;&gt;navigation&lt;br&gt;&lt;/font&gt;&lt;/div&gt;" style="text;html=1;align=center;verticalAlign=middle;resizable=0;points=[];autosize=1;strokeColor=none;fillColor=none;" vertex="1" parent="1">
          <mxGeometry x="570" y="640" width="120" height="60" as="geometry" />
        </mxCell>
        <mxCell id="wxSiTPEyvqV6hVWRVPNo-70" value="&lt;div&gt;&lt;font color=&quot;#9933ff&quot;&gt;Design &amp;amp;&amp;nbsp;&lt;/font&gt;&lt;/div&gt;&lt;div&gt;&lt;font color=&quot;#9933ff&quot;&gt;Mockups&lt;/font&gt;&lt;/div&gt;" style="text;html=1;align=center;verticalAlign=middle;resizable=0;points=[];autosize=1;strokeColor=none;fillColor=none;" vertex="1" parent="1">
          <mxGeometry x="260" y="650" width="80" height="40" as="geometry" />
        </mxCell>
        <mxCell id="wxSiTPEyvqV6hVWRVPNo-71" value="" style="triangle;whiteSpace=wrap;html=1;rotation=-90;fillColor=#b1ddf0;strokeColor=#10739e;shadow=1;" vertex="1" parent="1">
          <mxGeometry x="300" y="490" width="20" height="30" as="geometry" />
        </mxCell>
        <mxCell id="wxSiTPEyvqV6hVWRVPNo-72" value="" style="triangle;whiteSpace=wrap;html=1;rotation=-90;fillColor=#b1ddf0;strokeColor=#10739e;shadow=1;" vertex="1" parent="1">
          <mxGeometry x="720" y="490" width="20" height="30" as="geometry" />
        </mxCell>
        <mxCell id="wxSiTPEyvqV6hVWRVPNo-73" value="&lt;div&gt;&lt;font color=&quot;#3399ff&quot;&gt;Vollständige&lt;/font&gt;&lt;/div&gt;&lt;div&gt;&lt;font color=&quot;#3399ff&quot;&gt;Testabdeckung&lt;br&gt;&lt;/font&gt;&lt;/div&gt;" style="text;html=1;align=center;verticalAlign=middle;resizable=0;points=[];autosize=1;strokeColor=none;fillColor=none;" vertex="1" parent="1">
          <mxGeometry x="675" y="580" width="110" height="40" as="geometry" />
        </mxCell>
        <mxCell id="wxSiTPEyvqV6hVWRVPNo-74" value="" style="endArrow=none;html=1;rounded=0;entryX=0;entryY=0.5;entryDx=0;entryDy=0;fillColor=#dae8fc;gradientColor=#7ea6e0;strokeColor=#6c8ebf;exitX=0.5;exitY=0.07;exitDx=0;exitDy=0;exitPerimeter=0;" edge="1" parent="1" source="wxSiTPEyvqV6hVWRVPNo-73" target="wxSiTPEyvqV6hVWRVPNo-72">
          <mxGeometry width="50" height="50" relative="1" as="geometry">
            <mxPoint x="730" y="540" as="sourcePoint" />
            <mxPoint x="730" y="520" as="targetPoint" />
          </mxGeometry>
        </mxCell>
        <mxCell id="wxSiTPEyvqV6hVWRVPNo-75" value="" style="triangle;whiteSpace=wrap;html=1;rotation=-90;fillColor=#e1d5e7;strokeColor=#9673a6;shadow=1;" vertex="1" parent="1">
          <mxGeometry x="730" y="490" width="20" height="30" as="geometry" />
        </mxCell>
        <mxCell id="wxSiTPEyvqV6hVWRVPNo-76" value="&lt;div&gt;&lt;font color=&quot;#9933ff&quot;&gt;Verbesserte&lt;/font&gt;&lt;/div&gt;&lt;div&gt;&lt;font color=&quot;#9933ff&quot;&gt;Webseite&lt;/font&gt;&lt;/div&gt;&lt;div&gt;&lt;font color=&quot;#9933ff&quot;&gt;(nach Usability-Tests)&lt;br&gt;&lt;/font&gt;&lt;/div&gt;" style="text;html=1;align=center;verticalAlign=middle;resizable=0;points=[];autosize=1;strokeColor=none;fillColor=none;" vertex="1" parent="1">
          <mxGeometry x="670" y="640" width="140" height="60" as="geometry" />
        </mxCell>
        <mxCell id="wxSiTPEyvqV6hVWRVPNo-77" value="&lt;div style=&quot;font-size: 13px;&quot;&gt;&lt;font style=&quot;font-size: 13px;&quot;&gt;15&lt;/font&gt;&lt;/div&gt;&lt;div style=&quot;font-size: 13px;&quot;&gt;&lt;font style=&quot;font-size: 13px;&quot;&gt;&lt;br&gt;&lt;/font&gt;&lt;/div&gt;&lt;div style=&quot;font-size: 13px;&quot;&gt;&lt;font style=&quot;font-size: 13px;&quot;&gt;&lt;font style=&quot;font-size: 13px;&quot;&gt;18.07&lt;/font&gt;&lt;font style=&quot;font-size: 13px;&quot;&gt;&lt;br&gt;&lt;/font&gt;&lt;/font&gt;&lt;/div&gt;" style="text;html=1;align=center;verticalAlign=middle;resizable=0;points=[];autosize=1;strokeColor=none;fillColor=none;" vertex="1" parent="1">
          <mxGeometry x="790" y="440" width="60" height="60" as="geometry" />
        </mxCell>
        <mxCell id="wxSiTPEyvqV6hVWRVPNo-78" value="&lt;div style=&quot;font-size: 13px;&quot;&gt;&lt;font style=&quot;font-size: 13px;&quot;&gt;16&lt;/font&gt;&lt;/div&gt;&lt;div style=&quot;font-size: 13px;&quot;&gt;&lt;font style=&quot;font-size: 13px;&quot;&gt;&lt;br&gt;&lt;/font&gt;&lt;/div&gt;&lt;div style=&quot;font-size: 13px;&quot;&gt;&lt;font style=&quot;font-size: 13px;&quot;&gt;&lt;font style=&quot;font-size: 13px;&quot;&gt;25.07&lt;/font&gt;&lt;font style=&quot;font-size: 13px;&quot;&gt;&lt;br&gt;&lt;/font&gt;&lt;/font&gt;&lt;/div&gt;" style="text;html=1;align=center;verticalAlign=middle;resizable=0;points=[];autosize=1;strokeColor=none;fillColor=none;" vertex="1" parent="1">
          <mxGeometry x="840" y="440" width="60" height="60" as="geometry" />
        </mxCell>
        <mxCell id="wxSiTPEyvqV6hVWRVPNo-79" value="" style="verticalLabelPosition=bottom;verticalAlign=top;html=1;shape=mxgraph.basic.8_point_star;fillColor=#f8cecc;gradientColor=#ea6b66;strokeColor=#b85450;shadow=1;" vertex="1" parent="1">
          <mxGeometry x="855" y="490" width="30" height="30" as="geometry" />
        </mxCell>
        <mxCell id="wxSiTPEyvqV6hVWRVPNo-81" style="edgeStyle=orthogonalEdgeStyle;rounded=0;orthogonalLoop=1;jettySize=auto;html=1;entryX=0.583;entryY=-0.011;entryDx=0;entryDy=0;entryPerimeter=0;startArrow=none;startFill=0;endArrow=none;endFill=0;strokeColor=#808080;exitX=1;exitY=0.5;exitDx=0;exitDy=0;exitPerimeter=0;" edge="1" parent="1" source="wxSiTPEyvqV6hVWRVPNo-45">
          <mxGeometry relative="1" as="geometry">
            <mxPoint x="869.69" y="90" as="sourcePoint" />
            <mxPoint x="869.69" y="439.97" as="targetPoint" />
            <Array as="points">
              <mxPoint x="870" y="340" />
              <mxPoint x="870" y="340" />
            </Array>
          </mxGeometry>
        </mxCell>
        <mxCell id="wxSiTPEyvqV6hVWRVPNo-82" value="&lt;div&gt;&lt;font color=&quot;#3399ff&quot;&gt;Fertigstellung&lt;/font&gt;&lt;/div&gt;&lt;font color=&quot;#3399ff&quot;&gt;Dokumentation&lt;/font&gt;" style="text;html=1;align=center;verticalAlign=middle;resizable=0;points=[];autosize=1;strokeColor=none;fillColor=none;" vertex="1" parent="1">
          <mxGeometry x="785" y="580" width="110" height="40" as="geometry" />
        </mxCell>
        <mxCell id="wxSiTPEyvqV6hVWRVPNo-83" value="" style="endArrow=none;html=1;rounded=0;exitX=0.5;exitY=0.125;exitDx=0;exitDy=0;exitPerimeter=0;fillColor=#dae8fc;gradientColor=#7ea6e0;strokeColor=#6c8ebf;entryX=0;entryY=0.5;entryDx=0;entryDy=0;" edge="1" parent="1">
          <mxGeometry width="50" height="50" relative="1" as="geometry">
            <mxPoint x="839.72" y="535" as="sourcePoint" />
            <mxPoint x="839.72" y="515" as="targetPoint" />
            <Array as="points">
              <mxPoint x="840" y="580" />
            </Array>
          </mxGeometry>
        </mxCell>
        <mxCell id="wxSiTPEyvqV6hVWRVPNo-84" value="" style="triangle;whiteSpace=wrap;html=1;rotation=-90;fillColor=#b1ddf0;strokeColor=#10739e;shadow=1;" vertex="1" parent="1">
          <mxGeometry x="830" y="490" width="20" height="30" as="geometry" />
        </mxCell>
        <mxCell id="wxSiTPEyvqV6hVWRVPNo-80" value="&lt;font color=&quot;#ff5353&quot;&gt;Projektabgabe&lt;/font&gt;" style="text;html=1;align=center;verticalAlign=middle;resizable=0;points=[];autosize=1;strokeColor=none;fillColor=none;shadow=1;" vertex="1" parent="1">
          <mxGeometry x="820" y="525" width="100" height="30" as="geometry" />
        </mxCell>
        <mxCell id="wxSiTPEyvqV6hVWRVPNo-85" value="Organisation" style="html=1;shadow=1;dashed=0;align=center;verticalAlign=middle;shape=mxgraph.arrows2.arrow;dy=0;dx=10;notch=0;fillColor=#6d8764;fontColor=#ffffff;strokeColor=#3A5431;" vertex="1" parent="1">
          <mxGeometry x="770" y="370" width="100" height="30" as="geometry" />
        </mxCell>
      </root>
    </mxGraphModel>
  </diagram>
</mxfile>
